<svg xmlns="http://www.w3.org/2000/svg" width="900" height="260" viewBox="0 0 900 260" role="img" aria-label="Weekly public contributions over the last 12 months: 28 total">
<title>Weekly public contributions over the last 12 months: 28 total</title>
<rect width="900" height="260" rx="10" fill="#F6F8FA" stroke="#D1D9E0"/>
<text x="24" y="38" font-family='-apple-system,BlinkMacSystemFont,"Segoe UI",Helvetica,Arial,sans-serif' font-size="17" font-weight="600" fill="#1F2328">Contribution activity</text>
<text x="24" y="60" font-family='-apple-system,BlinkMacSystemFont,"Segoe UI",Helvetica,Arial,sans-serif' font-size="13" fill="#59636E">28 public contributions in the last 12 months (weekly totals)</text>
<line x1="24" y1="216" x2="876" y2="216" stroke="#D1D9E0"/>
<rect x="24.0" y="214" width="13.1" height="2" rx="1" fill="#D1D9E0"/>
<text x="24.0" y="242" font-family='-apple-system,BlinkMacSystemFont,"Segoe UI",Helvetica,Arial,sans-serif' font-size="11" fill="#59636E">Oct</text>
<rect x="40.1" y="214" width="13.1" height="2" rx="1" fill="#D1D9E0"/>
<rect x="56.2" y="214" width="13.1" height="2" rx="1" fill="#D1D9E0"/>
<rect x="72.2" y="214" width="13.1" height="2" rx="1" fill="#D1D9E0"/>
<rect x="88.3" y="214" width="13.1" height="2" rx="1" fill="#D1D9E0"/>
<text x="88.3" y="242" font-family='-apple-system,BlinkMacSystemFont,"Segoe UI",Helvetica,Arial,sans-serif' font-size="11" fill="#59636E">Nov</text>
<rect x="104.4" y="214" width="13.1" height="2" rx="1" fill="#D1D9E0"/>
<rect x="120.5" y="214" width="13.1" height="2" rx="1" fill="#D1D9E0"/>
<rect x="136.5" y="214" width="13.1" height="2" rx="1" fill="#D1D9E0"/>
<rect x="152.6" y="214" width="13.1" height="2" rx="1" fill="#D1D9E0"/>
<rect x="168.7" y="214" width="13.1" height="2" rx="1" fill="#D1D9E0"/>
<text x="168.7" y="242" font-family='-apple-system,BlinkMacSystemFont,"Segoe UI",Helvetica,Arial,sans-serif' font-size="11" fill="#59636E">Dec</text>
<rect x="184.8" y="214" width="13.1" height="2" rx="1" fill="#D1D9E0"/>
<rect x="200.8" y="214" width="13.1" height="2" rx="1" fill="#D1D9E0"/>
<rect x="216.9" y="214" width="13.1" height="2" rx="1" fill="#D1D9E0"/>
<rect x="233.0" y="214" width="13.1" height="2" rx="1" fill="#D1D9E0"/>
<text x="233.0" y="242" font-family='-apple-system,BlinkMacSystemFont,"Segoe UI",Helvetica,Arial,sans-serif' font-size="11" fill="#59636E">Jan</text>
<rect x="249.1" y="214" width="13.1" height="2" rx="1" fill="#D1D9E0"/>
<rect x="265.1" y="214" width="13.1" height="2" rx="1" fill="#D1D9E0"/>
<rect x="281.2" y="214" width="13.1" height="2" rx="1" fill="#D1D9E0"/>
<rect x="297.3" y="214" width="13.1" height="2" rx="1" fill="#D1D9E0"/>
<text x="297.3" y="242" font-family='-apple-system,BlinkMacSystemFont,"Segoe UI",Helvetica,Arial,sans-serif' font-size="11" fill="#59636E">Feb</text>
<rect x="313.4" y="214" width="13.1" height="2" rx="1" fill="#D1D9E0"/>
<rect x="329.4" y="214" width="13.1" height="2" rx="1" fill="#D1D9E0"/>
<rect x="345.5" y="214" width="13.1" height="2" rx="1" fill="#D1D9E0"/>
<rect x="361.6" y="214" width="13.1" height="2" rx="1" fill="#D1D9E0"/>
<text x="361.6" y="242" font-family='-apple-system,BlinkMacSystemFont,"Segoe UI",Helvetica,Arial,sans-serif' font-size="11" fill="#59636E">Mar</text>
<rect x="377.7" y="214" width="13.1" height="2" rx="1" fill="#D1D9E0"/>
<rect x="393.7" y="214" width="13.1" height="2" rx="1" fill="#D1D9E0"/>
<rect x="409.8" y="214" width="13.1" height="2" rx="1" fill="#D1D9E0"/>
<rect x="425.9" y="214" width="13.1" height="2" rx="1" fill="#D1D9E0"/>
<rect x="442.0" y="214" width="13.1" height="2" rx="1" fill="#D1D9E0"/>
<text x="442.0" y="242" font-family='-apple-system,BlinkMacSystemFont,"Segoe UI",Helvetica,Arial,sans-serif' font-size="11" fill="#59636E">Apr</text>
<rect x="458.0" y="214" width="13.1" height="2" rx="1" fill="#D1D9E0"/>
<rect x="474.1" y="214" width="13.1" height="2" rx="1" fill="#D1D9E0"/>
<rect x="490.2" y="214" width="13.1" height="2" rx="1" fill="#D1D9E0"/>
<rect x="506.3" y="214" width="13.1" height="2" rx="1" fill="#D1D9E0"/>
<text x="506.3" y="242" font-family='-apple-system,BlinkMacSystemFont,"Segoe UI",Helvetica,Arial,sans-serif' font-size="11" fill="#59636E">May</text>
<rect x="522.3" y="214" width="13.1" height="2" rx="1" fill="#D1D9E0"/>
<rect x="538.4" y="214" width="13.1" height="2" rx="1" fill="#D1D9E0"/>
<rect x="554.5" y="214" width="13.1" height="2" rx="1" fill="#D1D9E0"/>
<rect x="570.6" y="214" width="13.1" height="2" rx="1" fill="#D1D9E0"/>
<rect x="586.6" y="214" width="13.1" height="2" rx="1" fill="#D1D9E0"/>
<text x="586.6" y="242" font-family='-apple-system,BlinkMacSystemFont,"Segoe UI",Helvetica,Arial,sans-serif' font-size="11" fill="#59636E">Jun</text>
<rect x="602.7" y="214" width="13.1" height="2" rx="1" fill="#D1D9E0"/>
<rect x="618.8" y="214" width="13.1" height="2" rx="1" fill="#D1D9E0"/>
<rect x="634.9" y="214" width="13.1" height="2" rx="1" fill="#D1D9E0"/>
<rect x="650.9" y="214" width="13.1" height="2" rx="1" fill="#D1D9E0"/>
<text x="650.9" y="242" font-family='-apple-system,BlinkMacSystemFont,"Segoe UI",Helvetica,Arial,sans-serif' font-size="11" fill="#59636E">Jul</text>
<rect x="667.0" y="214" width="13.1" height="2" rx="1" fill="#D1D9E0"/>
<rect x="683.1" y="214" width="13.1" height="2" rx="1" fill="#D1D9E0"/>
<rect x="699.2" y="214" width="13.1" height="2" rx="1" fill="#D1D9E0"/>
<rect x="715.2" y="214" width="13.1" height="2" rx="1" fill="#D1D9E0"/>
<text x="715.2" y="242" font-family='-apple-system,BlinkMacSystemFont,"Segoe UI",Helvetica,Arial,sans-serif' font-size="11" fill="#59636E">Aug</text>
<rect x="731.3" y="214" width="13.1" height="2" rx="1" fill="#D1D9E0"/>
<rect x="747.4" y="211.1" width="13.1" height="4.9" rx="2" fill="#0F766E"><title>2026-08-16: 1</title></rect>
<rect x="763.5" y="214" width="13.1" height="2" rx="1" fill="#D1D9E0"/>
<rect x="779.5" y="214" width="13.1" height="2" rx="1" fill="#D1D9E0"/>
<rect x="795.6" y="214" width="13.1" height="2" rx="1" fill="#D1D9E0"/>
<text x="795.6" y="242" font-family='-apple-system,BlinkMacSystemFont,"Segoe UI",Helvetica,Arial,sans-serif' font-size="11" fill="#59636E">Sep</text>
<rect x="811.7" y="214" width="13.1" height="2" rx="1" fill="#D1D9E0"/>
<rect x="827.8" y="214" width="13.1" height="2" rx="1" fill="#D1D9E0"/>
<rect x="843.8" y="214" width="13.1" height="2" rx="1" fill="#D1D9E0"/>
<rect x="859.9" y="84.0" width="13.1" height="132.0" rx="2" fill="#0F766E"><title>2026-10-04: 27</title></rect>
</svg>
